<svg xmlns:dc="http://purl.org/dc/elements/1.1/" xmlns:cc="http://creativecommons.org/ns#" xmlns:rdf="http://www.w3.org/1999/02/22-rdf-syntax-ns#"  xmlns="http://www.w3.org/2000/svg" xmlns:sodipodi="http://sodipodi.sourceforge.net/DTD/sodipodi-0.dtd" xmlns:inkscape="http://www.inkscape.org/namespaces/inkscape" version="1.1" id="Map" width="1590.8443603515625" height="1408.3125" inkscape:version="0.48.4 r9939" sodipodi:docname="Corpen Aike (Provincia de Santa Cruz - Argentina).svg" xmlns:xlink="http://www.w3.org/1999/xlink" viewBox="1.1522938013076782 -17.87596321105957 1745.4439697265625 1496.0948486328125"><rect id="svgEditorBackground" x="1.49916672706604" y="-17.87596321105957" width="1744.750244140625" height="1496.0948486328125" style="fill:none;stroke:none;"/>
  <metadata id="metadata4410">
    <rdf:RDF>
      <cc:Work rdf:about="">
        <dc:format>image/svg+xml</dc:format>
        <dc:type rdf:resource="http://purl.org/dc/dcmitype/StillImage"/>
        <dc:title/>
      </cc:Work>
    </rdf:RDF>
  </metadata>
  <sodipodi:namedview pagecolor="#ffffff" bordercolor="#666666" borderopacity="1" objecttolerance="10" gridtolerance="10" guidetolerance="10" inkscape:pageopacity="0" inkscape:pageshadow="2" inkscape:window-width="1920" inkscape:window-height="1030" id="namedview4408" showgrid="false" inkscape:zoom="0.57728665" inkscape:cx="795.42218" inkscape:cy="704.15625" inkscape:window-x="-8" inkscape:window-y="-8" inkscape:window-maximized="1" inkscape:current-layer="g3388" borderlayer="true" fit-margin-top="0" fit-margin-left="0" fit-margin-right="0" fit-margin-bottom="0"/>
  <g inkscape:groupmode="layer" id="layer1" inkscape:label="Oceano" transform="translate(-2502.2184,-3894.6562)" sodipodi:insensitive="true" style="display:inline">
    
  </g>
  <g id="g3388" inkscape:groupmode="layer" inkscape:label="Departamentos" clip-path="url(#clip)" visibility="visible" transform="matrix(0.02979838,0,0,0.02979838,11620.129,-6932.4883)" style="visibility:visible;display:inline">
    <path style="fill:#318CE7;fill-opacity:1;fill-rule:evenodd;stroke:#000000;stroke-width:0.29999998000000000;stroke-linejoin:round;stroke-miterlimit:4;stroke-opacity:1;stroke-dasharray:none" d="M607.84375,744.5l-3.28125,82.34375l-0.5625,14.28125l-2.5,60.71875l-1.03125,0.71875l-0.46875,0.34375l-1.1875,23.21875l1.34375,1l-2.46875,56.53125l38.375,0.9375l67.875,1.46875l129.03125,2.125l0.1875,0c-0.008000000000038199,-0.06290000000001328,-0.02359999999998763,-0.12477999999998701,-0.03120000000001255,-0.1875c-0.36581999999998516,-2.9803699999999935,-0.43993000000000393,-5.755019999999945,0.3125,-8.0625c1.2023599999999988,-6.598259999999982,5.46087,-10.14476000000002,7.28125,-16.125c1.3629799999999932,-6.437339999999949,2.5508200000000443,-9.392860000000042,6.5,-13.28125c0.46574999999995725,-3.9319000000000415,6.530939999999987,-8.150809999999979,8.96875,-12.59375c3.746849999999995,-5.678379999999947,9.214600000000019,-9.176939999999945,14.0625,-13.1875c3.3573800000000347,0.15792999999996482,2.487790000000018,-0.3417899999999463,3.46875,-2.1875c-0.4997200000000248,-0.826310000000035,0.37012000000004264,-3.3702799999999797,3.625,-4.0625c7.471049999999991,-0.4770700000000261,9.145219999999995,-5.492600000000039,17.1875,-5.4375c3.2807999999999993,-1.801309999999944,10.073560000000043,-3.3069699999999784,13.4375,-3.9375c6.777640000000019,-3.030499999999961,16.93751999999995,-5.151920000000018,25.1875,-7.71875c7.824759999999969,-2.766179999999963,18.262339999999995,-2.9279699999999593,22.28125,-9.5c-3.841009999999983,-8.398379999999975,16.07203000000004,-2.685860000000048,22.875,-5c12.170550000000048,-1.956260000000043,22.058449999999993,-5.926410000000033,31.874950000000013,-10.125c7.596199999999953,-4.392579999999953,15.932700000000068,-8.047680000000014,22.625099999999975,-13.34375c4.889899999999898,-4.962920000000054,9.572300000000041,-10.149829999999952,12.531300000000101,-17.09375c5.304399999999987,-7.07204999999999,9.910900000000083,-15.758839999999964,9.25,-27.5c-0.3915999999999258,-2.593060000000037,-0.9092000000000553,-6.88289999999995,0.9686999999998989,-8.9375c1.2199000000000524,-9.666000000000054,2.8023000000000593,-19.38707999999997,5.3125,-28l-157.87505,1.625l-20.84375,0.125l-0.6562999999999874,-21.53125l-145.25,0.21875l-0.59375,0l0,-0.03120000000001255l0.53125,-17.0625l-106.625,-0.5625Z" transform="matrix(33.558871,0,0,33.558871,-389958.41,232646.48)" id="path4252" inkscape:connector-curvature="0" sodipodi:nodetypes="ccccccccccccccccccccccccccccccccccccccccc"/>
    <path style="fill:#318CE7;fill-opacity:1;fill-rule:evenodd;stroke:#000000;stroke-width:0.29999998;stroke-linejoin:round;stroke-miterlimit:4;stroke-opacity:1;stroke-dasharray:none" d="M1071.9375,244.25l-9.0625,0.125l-0.03099999999994907,0.0625l-7,0.09370000000001255l-5.625,0.0625l-5.437599999999975,0.0625l-5.031199999999899,0.03120000000001255l-4.5625,0.0625l-11.5625,0.125l-14.5,0.125l-1.5937999999999874,0l-16.124950000000013,0.125l-14.71875,0.125l-1.40625,0l-9.75,0.09370000000001255l-6.34375,0.03120000000001255l-5.3125,0.03120000000001255l-1.78125,0l-9.03125,0.0625l-16.125,0.0625l-12.0625,0.0625l-4.03125,0l-3.34375,0.03120000000001255l-12.78125,0l-14.25,0.0625l-1.875,0l-16.09375,0l-13.4375,0l-2.6875,0l-16.09375,0l-16.125,-0.03120000000001255l-12.90625,-0.03120000000001255l-3.21875,0l-3.0625,0l-13.03125,-0.0625l-11.96875,-0.0625l-4.15625,0l-12.4375,-0.0625l-0.59375,0l-0.65625,0l-1,37.78125l-0.96875,38.28125l-2.78125,104.3125l-2.46875,8.6875l-0.78125,2.75l-0.0625,2.28125l-0.1875,8.125l-3.9375,159.28125l59.125,18.125l56.4375,-3.09375l0.84375,-0.03120000000001255l50.65604999999982,-2.9373500000000377l51.1875,-3.09375l23.40625,10.125l88.84375,-55.0625l4.468699999999899,3.21875l5.343800000000101,0.125l47.8125,46.59375l11.6875,11.25l45.4375,15.0625l0.15630000000010114,-0.03120000000001255l0.1874000000000251,-0.0625l0.34380000000010114,0.15625c0.6721000000000004,-2.224330000000009,3.4594999999999345,-4.168630000000007,4.8125,-5.28125c0.07400000000006912,-4.880679999999984,7.4944000000000415,-5.17665999999997,10.843699999999899,-7.46875c2.38779999999997,-3.2593500000000404,5.04119999999989,-5.02819999999997,10.093800000000101,-6.0625c3.241800000000012,-0.2839800000000423,2.8226999999999407,-0.4731299999999692,4.4375,-2c5.281199999999899,-3.530210000000011,16.58089999999993,-1.981390000000033,21.9375,-3.8125c3.579099999999926,-0.7667099999999891,6.49330000000009,0.6916800000000194,7.625,-1.75c4.657500000000027,-0.3748600000000124,0.4704999999999018,-1.7713999999999714,3.156199999999899,-3.25c-4.318299999999908,-3.746250000000032,3.5057999999999083,-6.42220999999995,8.562599999999975,-5.78125c4.6077000000000226,-1.3927800000000161,7.6491000000000895,2.8789299999999685,9.281199999999899,1.125c3.213799999999992,-1.8537599999999657,-0.5850000000000364,1.0123599999999442,1.25,0.15625c-0.6876999999999498,0.6287499999999682,2.452099999999973,1.4636900000000423,1.1875,-0.96875c-0.7146000000000186,-0.39691000000004806,-5.402900000000045,-4.319600000000037,-3,-7.03125c2.3565000000000964,-1.3459900000000289,1.9697000000001026,-6.271799999999985,6.531300000000101,-6.1875c1.0062000000000353,-1.6010700000000497,5.225100000000111,-2.980699999999956,7.562400000000025,-4.15625c-0.38789999999994507,-1.0968800000000556,2.476699999999937,-1.751260000000002,1.1563000000001011,-1.9375c1.460399999999936,-2.3799999999999955,4.634499999999889,-4.7460700000000315,8.281300000000101,-4.0625c1.9910999999999603,-1.6347399999999652,9.445699999999988,-0.04280000000005657,6.843699999999899,-3.25c-2.8592000000001008,-0.5179000000000542,4.098199999999906,-2.699190000000044,3.125,-2.875c1.3733999999999469,-1.876700000000028,-0.66599999999994,-3.7386900000000196,1.9686999999998989,-3.25c-0.09799999999995634,-0.26788999999996577,-0.20669999999995525,-3.4762799999999743,3.156300000000101,-3.15625c1.013400000000047,0.44757000000004155,1.8463999999999032,-1.9020600000000059,5.781300000000101,-1.4375c2.1964000000000397,3.5185900000000174,0.4697000000001026,-1.527879999999982,5.5,-0.875c1.2816000000000258,1.6022600000000011,1.5471000000000004,0.2427500000000009,3.906199999999899,0.8125c-1.3630000000000564,-2.430650000000014,3.370100000000093,1.080220000000054,2.968800000000101,-0.75c0.7436999999999898,-0.6644999999999754,4.272200000000112,-1.3350199999999859,6.5,0.53125c1.0184999999999036,-0.33403999999995904,-1.4329000000000178,2.835140000000024,1.812400000000025,1.84375c-1.3766000000000531,-1.4982599999999593,1.0451000000000477,-0.9687199999999621,2.187599999999975,-0.75c2.197599999999966,-1.7530400000000554,1.5411999999998898,-0.9510000000000218,0.9374000000000251,-2.5625c2.235200000000077,1.5781200000000126,0.9839999999999236,-1.3718900000000076,1.937599999999975,0.21875c3.63799999999992,1.5948100000000522,-1.1014999999999873,-1.866070000000036,0.5936999999998989,-1.625c-2.189000000000078,-1.5110799999999927,-4.207499999999982,-2.1050199999999677,-7.0625,-2.625c-1.2614000000000942,-0.9604000000000497,0.02299999999991087,-0.22932000000002972,-2.531199999999899,-1.5625c-2.8046999999999116,-2.666060000000016,-1.408100000000104,-2.302599999999984,1.312400000000025,-4.3125c3.649499999999989,-0.6475199999999859,0.2460000000000946,-1.7124099999999771,-0.375,-3c3.186999999999898,0.2518000000000029,5.803699999999935,-0.9860599999999522,1.8438000000001011,-1.1875c-0.28340000000002874,-1.4124399999999468,2.643199999999979,-1.655179999999973,2.8125,-2.53125c-0.3421000000000731,-1.325429999999983,-4.70880000000011,-0.1651200000000017,-3.875,-3.375c0.2759000000000924,-4.880679999999984,11.130499999999984,-8.054139999999961,12.218699999999899,-4.1875c-0.22039999999992688,0.5882900000000291,1.0834999999999582,0.06970000000001164,1.8438000000001011,-0.53125c-0.07199999999988904,-0.0030000000000427463,-0.1271999999999025,-0.06039999999995871,0,-0.21875c0.08400000000006003,0.023500000000012733,0.1069999999999709,0.06569999999999254,0.125,0.09370000000001255c0.14750000000003638,-0.13134000000002288,0.2807999999999993,-0.2521199999999908,0.34380000000010114,-0.375c4.7473999999999705,-0.3358299999999872,1.779800000000023,2.9094499999999925,2.687400000000025,4.1875c1.0381999999999607,-2.0265900000000556,1.0343000000000302,1.5777799999999615,2.937599999999975,-0.9375c2.797700000000077,1.2714999999999463,3.0830000000000837,-1.592800000000011,6.937400000000025,-0.90625c4.70939999999996,-0.43683999999996104,-1.5981999999999061,-1.0578799999999546,-1.7811999999998989,-1.1875c-1.6850999999999203,-1.2214400000000296,0.2644999999999982,-0.9388800000000401,-0.6561999999998989,-2c-0.8985000000000127,-2.5861999999999625,8.173700000000053,-1.181069999999977,2.875,-3.03125c1.5851999999999862,-0.9076599999999644,-1.7759000000000924,-0.22724000000005162,-3,-1.3125c-3.16820000000007,0.474990000000048,-5.249700000000075,-0.2039999999999509,-7.468800000000101,-1.3125c-4.533500000000004,-2.810579999999959,-2.7316000000000713,-11.345860000000016,-6.125,-14.96875c1.9058999999999742,-0.853430000000003,-2.53469999999993,-2.0094100000000026,0.06199999999989814,-3.5625c-1.6574000000000524,-1.2965299999999615,-2.801200000000108,-1.4335800000000063,-2.781300000000101,-2.6875c1.1463000000001102,0.09939999999994598,3.610400000000027,-0.10955000000001291,3.937599999999975,-0.21875c-0.16260000000011132,-0.030300000000011096,-0.7119999999999891,-0.05750000000000455,-1.875,-0.03120000000001255c0.75649999999996,-0.9353700000000345,6.277000000000044,-0.7427599999999757,6.375,-2.28125c1.6596999999999298,-7.108110000000011,7.503200000000106,-13.505729999999971,9.75,-21.46875c2.9825000000000728,-3.64136000000002,3.537399999999934,-9.446000000000026,5.781199999999899,-13.6875c0.9094000000000051,-6.127740000000017,2.8184000000001106,-13.080469999999991,2.593800000000101,-20.28125c2.5628999999998996,-8.000569999999982,-0.3272999999999229,-14.232230000000015,-3.125,-20.96875c-1.3240000000000691,-1.699700000000007,-2.8835999999998876,-7.690670000000011,0.9061999999998989,-6.5625c2.246499999999969,-0.8155800000000113,-3.384900000000016,-2.175049999999999,-5.0625,-3.59375c-2.6829999999999927,-3.8034700000000043,-7.320600000000013,-5.0788800000000265,-10.875,-8.71875c-0.9040999999999713,-1.9884500000000003,-0.6938999999999851,-4.161380000000008,-3.25,-4.59375c-3.4155000000000655,-1.1195299999999975,-8.620300000000043,-1.1707299999999918,-11.218699999999899,-3.6875c-5.795499999999947,-1.2250099999999975,-11.641100000000051,-0.8948199999999815,-19.4688000000001,-0.75c-4.616400000000112,2.7894299999999816,-11.732400000000098,0.5513199999999756,-17.1561999999999,1.90625c-9.382700000000114,0.12425999999999249,-18.721900000000005,-2.691250000000025,-27.375,-2.78125c-10.650300000000016,-1.2542100000000005,-21.33050000000003,-5.692479999999989,-32.4688000000001,-2.84375c-4.127099999999928,-2.6351000000000226,-11.982500000000073,1.6734200000000214,-14.843800000000101,-2.625c-4.59069999999997,-0.1340900000000147,-9.978599999999915,0.8470699999999738,-14.031199999999899,-1.625c-6.092300000000023,-1.6618599999999901,-8.701199999999972,-5.969809999999995,-13.593800000000101,-8.75c-3.506900000000087,-0.6776199999999903,-2.435999999999922,-5.147800000000018,-5.843699999999899,-5c-2.6801000000000386,-1.2110099999999875,-4.094299999999976,-3.758170000000007,-6.0625,-5.59375c-3.472400000000107,-2.624340000000018,-4.732600000000048,-7.126210000000015,-10.218800000000101,-7.84375c-2.0184999999999036,-2.9646399999999744,-6.068899999999985,-3.8313099999999736,-9.062400000000025,-5.96875c-2.3689999999999145,-3.31328000000002,-6.5487000000000535,-4.800830000000019,-8.656300000000101,-8.5c-2.2870000000000346,-2.1976300000000037,-6.137699999999995,-4.843729999999994,-5.9375,-7.53125c-0.38589999999999236,-1.378469999999993,-2.870100000000093,0.36209000000002334,-3.718800000000101,-1.25c1.3027999999999338,-0.932389999999998,-2.954400000000078,-0.4638400000000047,-2.687400000000025,-1.3125c-2.5615000000000236,1.9202099999999973,-6.8974000000000615,-1.7633299999999963,-10.062599999999975,-3.03125c-1.136199999999917,-3.332650000000001,-4.172900000000027,-4.027679999999975,-7.312400000000025,-5c-7.274699999999939,-1.290270000000021,-14.460700000000088,-2.959169999999972,-18.4063000000001,-8.59375c-6.057999999999993,-3.448570000000018,-8.699200000000019,-10.914609999999982,-12.968699999999899,-16c-2.1651999999999134,-4.866080000000011,-6.274200000000064,-9.286189999999976,-8.687599999999975,-14.25c-7.031500000000051,-10.788499999999999,-14.083399999999983,-27.735349999999983,-12.562400000000025,-44.5625c-0.4079999999999018,-4.462310000000002,0.2240999999999076,-3.6221800000000144,2.125,-5.4375c-2.6523999999999432,-0.1129399999999805,-2.5668000000000575,-3.3323699999999974,0.15619999999989886,-2.90625c3.705099999999902,-0.2535799999999995,1.2647999999999229,-2.971709999999973,3.968800000000101,-3.46875c0.10419999999999163,-0.2768299999999897,-0.4614999999998872,-1.7837800000000072,0.375,-1.90625l-0.5625999999999749,-4.03125l-4.093699999999899,-0.15625ZM1347.5,516.34375c-0.7807000000000244,1.5819999999999936,0.8876999999999953,0.7711799999999585,0,0ZM1342.9062,525.375c-2.113499999999931,1.2488499999999476,2.466799999999921,0.6046099999999797,0,0ZM1366.8125,541.8125c-4.481700000000046,1.8340899999999465,3.4494999999999436,2.781380000000013,0,0ZM1361.8125,542.90625c-0.3972000000001117,0.005999999999971806,-0.9699000000000524,0.04399999999998272,-1.75,0.09370000000001255c-1.0150000000001,0.7192599999999629,4.5301999999999225,-0.1380500000000211,1.75,-0.09370000000001255ZM1363.7188,543.28125c-2.3299999999999272,1.2336500000000115,0.06400000000007822,1.738740000000007,0,0ZM1364,543.75c-1.191000000000031,1.4565400000000182,1.0856000000001131,0.37099000000000615,0,0ZM1338.3438,568.125c-1.5406000000000404,1.5361100000000079,2.1784999999999854,0.7878699999999981,0,0ZM1339.6875,569.5c-1.2934999999999945,0.8349500000000489,1.1836000000000695,0.5718299999999772,0,0ZM1338.6875,574.15625c-0.11259999999992942,1.5271699999999555,1.700900000000047,0.16895999999997002,0,0ZM1308.7188,576.5625c1.9139000000000124,1.7598900000000413,1.6141000000000076,0.28814999999997326,0,0ZM1283.9688,593.78125c-2.4891000000000076,0.613550000000032,-0.4896000000001095,1.2020700000000488,0,0ZM1272.2188,612.40625c-1.7251000000001113,1.08883000000003,0.9829999999999472,0.6764200000000073,0,0Z" transform="matrix(33.558871,0,0,33.558871,-389958.41,232646.48)" id="path4254" inkscape:connector-curvature="0"/>
    <path style="fill:#318CE7;fill-opacity:1;fill-rule:evenodd;stroke:#000000;stroke-width:0.29999998;stroke-linejoin:round;stroke-miterlimit:4;stroke-opacity:1;stroke-dasharray:none" d="M340.6875,975.15625l-3.625,5.3125l-0.8125,1.6875l-0.4375,1.34375l-0.34375,1.375l0.40625,1.25l1.15625,1.34375l1.90625,1.75l0.4375,0.75l2.40625,2.8125l1.125,1.0625l7.53125,8.28125l-0.0625,1l-0.40625,1.625l0.15625,1.375l-0.28125,3.0937999999999874l-0.15625,1.5312000000000126l-0.34375,1.75l-0.375,3.5l-0.4375,3.4375l-0.84375,5.906300000000101l-0.3125,3.343699999999899l-0.875,1.5313000000001011l-0.0625,0.03099999999994907l-0.65625,0.4375l-0.65625,0.4375l-0.03120000000001255,0.03099999999994907l-1.25,-0.03099999999994907l-0.0625,0l-0.71875,0.21880000000010114l-2.15625,-0.03099999999994907l-0.03120000000001255,0l-1.5625,-0.21869999999989886l-4.1875,-0.125l-0.0625,0l-1.09375,0.21869999999989886l-0.875,0.5l-0.8125,1.8125l-1.3125,2.093800000000101l-0.0625,0.03099999999994907l-1.1875,1.1875l-2,0.6875l-2.84375,1.5625l-0.9375,1.2813000000001011l0.28125,0.375l-0.03120000000001255,0.875l-0.46875,1.625l0.6875,2l0.90625,2.218699999999899l1.90625,2.718699999999899l1.4375,2.062599999999975l0.90625,1.062400000000025l2.84375,1.5938000000001011l3.78125,2.468800000000101l0.03120000000001255,0l1.15625,0.40619999999989886l0.0625,0l4.125,0.8438000000001011l0.78125,0.25l1.4375,0.9061999999998989l0.96875,0.40619999999989886l0.3125,0.25l0.78125,0.8438000000001011l0.09370000000001255,0.6875l-0.1875,1.0313000000001011l0.09370000000001255,1.4061999999998989l-0.5,0.9688000000001011l-1.375,1.687400000000025l-0.0625,0.03099999999994907l-1.21875,0.7186999999998989l-5.0625,3l-1.28125,1.375l-0.78125,2.437599999999975l-0.1875,1.6561999999998989l-0.40625,1.2188000000001011l0.34375,3.656199999999899l-0.25,0.5l0.21875,1.75l0.25,3.5l-0.65625,1.125l-0.15625,1l-0.71875,0.8125l-1.84375,2.281300000000101l-0.46875,1.2186999999998989l0.4375,2.9375l0.1875,1.25l-0.09370000000001255,1.75l-0.40625,1.2188000000001011l-1.65625,1.9061999999998989l-1.90625,1.375l-0.0625,0.03099999999994907l-0.15625,0.06300000000010186l-0.875,0.375l-2.03125,0.8436999999998989l-2.21875,1.25l-0.78125,0.7813000000001011l-0.0625,0.03099999999994907l-1.6875,1.2188000000001011l-1,1.937400000000025l-1.21875,3.218800000000101l0.40625,1.3438000000001011l0.9375,1.3436999999998989l1.5,1.1875l0.0625,0l2.40625,-0.06199999999989814l2.3125,-0.25l4.90625,-0.21869999999989886l0.5625,0.1874000000000251l0.0625,0l1.25,0.5313000000001011l0.46875,0.40630000000010114l1.0625,2l0.4375,1.0311999999998989l2.40625,4.8125l2.125,4.218699999999899l1,3l0.625,0.75l2.15625,0.8438000000001011l0.03120000000001255,0l2.75,0.6875l0.0625,0l3.25,0.375l2.84375,0.375l1.09375,0.375l0.0625,0l1.40625,0.1875l2.875,0.6875l0.0625,0l1.65625,0.5313000000001011l0.0625,0l4.28125,1.9686999999998989l3.4375,1.8436999999998989l1.34375,0.5625999999999749l1.65625,1.125l5.46875,3.5l0.03120000000001255,0l5.5,3.718699999999899l4.5,3.281300000000101l3.40625,2.875l2.9375,1.75l1.8125,1.687400000000025l0.03120000000001255,0l1.28125,2.312599999999975l0.59375,2.562400000000025l-0.09370000000001255,1l-0.34375,0.6875999999999749l-1.3125,1.375l-0.0625,0.03099999999994907l-1.03125,1.0625l-0.0625,0.03099999999994907l-1.40625,0.8124000000000251l-0.0625,0.03099999999994907l-1.34375,0.6875l-0.3125,0.7811999999998989l0.03120000000001255,1.3438000000001011l0.90625,1.3438000000001011l5.5625,4.906199999999899l1.375,0.875l1.5625,0.46880000000010114l0.0625,0l1.5625,0.09400000000005093l0.0625,0l4.96875,0.03099999999994907l0.0625,0l7.28125,0.06199999999989814l0.0625,0l2.59375,0.03099999999994907l0.0625,0l0.0625,0l2.71875,-0.06199999999989814l10.4375,0.15619999999989886l0.03120000000001255,0l4.75,0l0.0625,0l1.34375,-0.03099999999994907l0.0625,0.03099999999994907l0.0625,0l0.96875,0.06300000000010186l0.0625,0l0.0625,0l3.46875,-0.06300000000010186l1.65625,0.125l0.0625,0l1,-0.15619999999989886l0.0625,0l1.4375,0.06199999999989814l0.15625,-0.03099999999994907l0.71875,-0.09400000000005093l1.5,0.06199999999989814l0.0625,0l8.96875,0.06199999999989814l10.09375,-0.03099999999994907l6.65625,0l0.0625,0l2.9375,0l0.0625,0l3.0625,0.03099999999994907l1.40625,-0.15630000000010114l0.0625,0l3.75,0.125l3.46875,-0.06199999999989814l0.0625,0l3.3125,0.03099999999994907l3.1875,0.06199999999989814l0.0625,0l0.125,0l9.3125,-0.09400000000005093l4.75,-0.03099999999994907l2.65625,0.03099999999994907l0.0625,0l5.09375,0.03099999999994907l5.78125,-0.03099999999994907l5.5625,-0.03099999999994907l4.28125,-0.03099999999994907l5.5,0.03099999999994907l0.0625,0l5.4375,0l2.15625,-0.1875l0.25,-0.03099999999994907l0.03120000000001255,0l2.4375,0.125l4.84375,0.09400000000005093l0.0625,0l3.78125,-0.03099999999994907l4.84375,-0.03099999999994907l2.90625,-0.09400000000005093l3.40625,0.1875999999999749l0.0625,0l13.25,0.03099999999994907l4.21875,-0.06199999999989814l0.0625,0l5.625,-0.03099999999994907l4.375,0.06300000000010186l3.0625,0.06199999999989814l0.0625,0l2.09375,0.06300000000010186l0.65625,-0.06300000000010186l0.0625,0l0.0625,0l0.5625,-0.06199999999989814l4.21875,0.06199999999989814l0.0625,0l8.78125,0l0.0625,0l1.96875,0l0.09370000000001255,0l3.78125,0.09400000000005093l0.0625,0l0.5,0.06199999999989814l4.90625,-0.09400000000005093l0.09370000000001255,0l0.03120000000001255,0l3.375,0.125l1.15625,-0.125l0.0625,0l7,0l5.90625,0l7.53125,-0.125l2.9375,0.06199999999989814l0.0625,0l2.0625,0.06300000000010186l1.03125,-0.06300000000010186l0.1875,-0.03099999999994907l0.0625,0l2.09375,0.06199999999989814l1.375,0.15630000000010114l1.78125,-0.15630000000010114l0.4375,-0.06199999999989814l5.90625,-0.06199999999989814l0.03120000000001255,0l5.75,0.03099999999994907l1.78125,-0.06300000000010186l3.3125,0l16.1875,-0.1874000000000251l0.0625,0l0.46875,0.06199999999989814l3.0625,0.7813000000001011l2.875,0.7813000000001011l4.375,1.312400000000025l7.5625,2l0.0625,0l1.84375,0.5625999999999749l12.8125,3.687400000000025l0.0625,0l2.4375,0.7188000000001011l2.6875,0.6875l3.71875,1.0936999999998989l0.0625,0l1.71875,0.40630000000010114l0.0625,0l8.03125,2.406300000000101l0.0625,0l1.78125,0.375l9.375,2.625l0.0625,0l4.4375,1.25l3.21875,0.9686999999998989l0.0625,0l7.84375,2.125l0.03120000000001255,0l4.75,1.4063000000001011l0.0625,0l2.65625,0.5l2.53125,0.5624000000000251l0.0625,0l4.15625,0l0.0625,0l2.34375,0.03099999999994907l0.5,-0.03099999999994907l4.1875,-0.25l7.625,-0.15619999999989886l7.03125,-0.09400000000005093l2.1875,0l1.46875,-0.06199999999989814l0.0625,0l3.71875,-0.09400000000005093l2.71875,-0.06199999999989814l2.46875,0.375l0.0625,0l2.03125,0.375l0.0625,0l6.21875,2.031300000000101l0.0625,0l4.875,1.4686999999998989l0.0625,0l1.3125,0.5625l1.90625,0.46880000000010114l0.0625,0l0.5,0.06199999999989814l0.0625,0l4.875,1.4063000000001011l0.46875,0.34369999999989886l2.40625,0.6875999999999749l0.0625,0l2.8125,0.625l3.3125,0.125l2.15625,0.375l0.03120000000001255,0l2.8125,1.0311999999998989l0.9375,0.15619999999989886l0.0625,0l-0.03120000000001255,0.25l4.15625,1.6563000000001011l3.3125,1.4375l3.84375,1.5938000000001011l0.84375,0.40619999999989886l2.6875,1.5311999999998989l4,2.031300000000101l3.21875,1.0936999999998989l1.46875,0.15630000000010114l0.03120000000001255,0l4.1875,0.40630000000010114l0.0625,0l1.2817499999998745,0.2837999999994736l0.0625,0l2.1875,0.21880000000010114l8.8125,1l7.3125,0.875l1.09375,0.125l5.9375,0.625l2.59375,0.5311999999998989l2.1875,0.5311999999998989l2.28125,2.375l2.375,0.8438000000001011l0.5625,-0.15619999999989886l8.28125,0.28119999999989886l7.90625,0.21880000000010114l1.46875,0.21869999999989886l1.90625,0.3125l0.28125,0.5625l-0.125,1.9686999999998989l0.1875,4.343800000000101l-1.71875,2.375l0.03120000000001255,0l0,0.3125l0.09370000000001255,0l0,0.1875l0.09370000000001255,0l0,0.03099999999994907l0.09370000000001255,0l0,0.03099999999994907l0.0625,0l0,0.06199999999989814l0.03120000000001255,0l-0.40625,0.5625l4.875,-3.718699999999899c1.5754399999999578,-4.27579999999989,7.251639999999952,-4.344499999999925,8.34375,-9.093800000000101c-14.714740000000006,-15.738299999999981,-32.54268000000002,-28.529899999999998,-47.03125,-44.6875c-15.717160000000035,-13.334800000000087,-24.256240000000048,-33.96360000000004,-38.125,-49.375c-6.215940000000046,-4.975400000000036,-6.345190000000002,-17.170000000000073,-16.59375,-17.375c-5.0180500000000166,0.7583999999999378,-12.76445000000001,3.291400000000067,-16.03125,7.468699999999899c-2.8975900000000365,1.7188000000001011,-5.261349999999993,2.386700000000019,-7.90625,4.062599999999975c-4.12518,0.04800000000000182,-9.361440000000016,1.1085000000000491,-12.21875,1.4686999999998989c2.375940000000014,-0.5552999999999884,3.2605499999999665,-2.682399999999916,6.75,-3.125c5.002849999999967,0.2437999999999647,5.248659999999973,-4.402299999999968,8.53125,-4.25c6.4272099999999455,-0.9594999999999345,-1.4694700000000012,-1.7608000000000175,-4.53125,-2.468699999999899c-2.9741800000000467,-1.4431999999999334,-10.744410000000016,-3.9528000000000247,-16.28125,-4.406300000000101c-8.915970000000016,-3.291500000000042,-18.729029999999966,-1.9215999999998985,-27.59375,0.6563000000001011c-8.407310000000052,-1.0220999999999094,-15.950820000000022,0.9824000000000979,-23.0625,2.468699999999899c5.642029999999977,-1.5592999999998938,17.088970000000018,-6.499499999999898,26.34375,-7.406300000000101c9.051259999999957,-4.481800000000021,22.151489999999967,-3.508100000000013,29.6875,1.25c7.065200000000004,2.2799999999999727,15.388230000000021,5.592799999999897,21.84375,2.25c3.528720000000021,-3.333699999999908,9.722520000000031,-7.388500000000022,16.125,-4.5c2.504260000000045,5.550899999999956,9.44583,-1.0902000000000953,6.53125,-5.375c-4.222430000000031,-7.547800000000052,-10.356980000000021,-18.858199999999897,-12.4375,-28.125c-2.7825699999999642,-5.7917999999999665,-5.688940000000002,-15.377700000000004,-8.40625,-22.4061999999999c-4.557069999999953,-6.522300000000087,-6.114569999999958,-14.2346,-8.3125,-21.7811999999999c-2.214619999999968,-4.766000000000076,-0.7780500000000075,-17.447900000000004,-10.6875,-14.125c-2.5766700000000355,2.820600000000013,-8.243799999999965,4.565000000000055,-13.0625,5.906199999999899c-4.002520000000004,4.22180000000003,-11.466850000000022,6.456100000000106,-15.9375,10.75c-1.444029999999998,1.2636999999999716,-8.774890000000028,0.9358999999999469,-5.21875,0.3125c5.575870000000009,0.858199999999897,6.000120000000038,-4.764499999999998,10.28125,-6.281300000000101c5.004639999999995,-3.8163999999999305,8.227819999999952,-8.485000000000014,14.4375,-10.593700000000013c0.2541800000000194,-0.9204999999999472,5.899890000000028,-3.040200000000027,5.5,-0.9375c-3.0897899999999936,-1.016399999999976,-3.450900000000047,3.1902999999999793,0.6875,0.625c1.0226800000000367,-7.942900000000009,9.85802000000001,-7.179300000000012,14.25,-11.5625c2.9075599999999895,-6.225699999999961,0.6684699999999566,-14.093790000000013,-0.1875,-20.875l-0.1875,0l-129.03125,-2.125l-67.875,-1.46875l-38.375,-0.9375l-0.03120000000001255,0l-133.28105000000005,-3.905249999999455l-123.6875,-4.59375ZM832.90625,985.03125c0.016499999999950887,0.45258000000001175,0.023500000000012733,0.908170000000041,0.0625,1.375c-0.0402000000000271,-0.4674800000000232,-0.044399999999996,-0.9220900000000256,-0.0625,-1.375ZM821.40625,1019.2188c-0.6415600000000268,0.7817999999999756,0.823030000000017,0.09299999999996089,0,0ZM819.59375,1022.1562c-1.7530400000000554,1.1947000000000116,0.5751099999999951,0.7617000000000189,0,0ZM854.4375,1024.7188c-0.0030000000000427463,0.15390000000002146,0.22735999999997603,-0.07899999999995089,0,0ZM849.84375,1112.375c-1.5366999999999962,0.7195999999999003,1.476509999999962,0.7363000000000284,0,0ZM848.71875,1112.6562c-3.1818700000000035,0.9285999999999603,0.21007999999994809,1.286100000000033,0,0ZM849.0625,1114.2187999999999c-0.8000899999999547,0.27520000000004075,-0.4450600000000122,1.0247999999999138,-1.5625,1c0.6323200000000497,2.0223000000000866,6.461649999999963,0.36220000000002983,1.5625,-1ZM852,1115.3437999999999c-1.1222099999999955,1.3956000000000586,4.60802000000001,0.25880000000006476,0,0ZM842.125,1116.6874999999998c-3.689640000000054,1.1836000000000695,2.8817999999999984,0.3367000000000644,0,0ZM838.3125,1118.1249999999998c-3.5886199999999917,0.7011999999999716,1.1514100000000553,0.5152000000000498,0,0ZM829.46875,1122.6249999999998c2.625829999999951,0.4580000000000837,0.8990199999999504,0.9284999999999854,0,0ZM836.0625,1123.6561999999997c0.4299899999999752,1.5247999999999138,3.2313400000000456,0.1793999999999869,0,0ZM835.375,1125.1249999999998c-3.4840299999999615,1.154700000000048,2.3725500000000466,1.0428999999999178,0,0ZM833.46875,1125.4374999999998c-2.8499199999999973,0.5527999999999338,0.23302000000001044,0.7428999999999633,0,0ZM900.84375,1231.5311999999997l0.28125,0.1875999999999749c0.6050699999999551,0.023999999999887223,1.2065800000000309,0.03999999999996362,1.8125,0.06199999999989814l-2.09375,-0.25ZM939.40625,1236.7811999999997c0.23932000000002063,1.8148000000001048,0.6609899999999698,3.0965000000001055,1.21875,3.937599999999975l-0.21875,-0.5938000000001011l-0.125,-1.6561999999998989l-0.875,-1.687599999999975Z" transform="matrix(33.558871,0,0,33.558871,-389958.41,232646.48)" id="path4256" inkscape:connector-curvature="0"/>
    <path d="M-380046.42,253767.38l0,0l3147.460000000021,1955.7900000000081l3048.5100000000093,1852.2000000000116l2232.179999999993,32.69000000000233l2058.289999999979,22.829999999987194l-110.36999999999534,2764.390000000014l-19.460000000020955,479.02999999999884l-83.72999999998137,2037.8299999999872l-34.19000000000233,24.289999999979045l-15.619999999995343,11.03000000002794l-40.070000000006985,779.5100000000093l45.14000000001397,33.179999999993015l-83.48999999999069,1896.9000000000233l-4472.75,-131.39000000001397l-4152.539999999979,-153.80999999999767l73.27000000001863,-107.78000000002794l9.580000000016298,-36.789999999979045l-32.789999999979045,-29.04999999998836l-30.760000000009313,-30.119999999995343l-67.59000000002561,-20.989999999990687l-78.26000000000931,-9.409999999974389l-44.97999999998137,-3.150000000023283l-54.36999999999534,-38.429999999993015l-46.73999999999069,-39.27000000001863l-56,-22.869999999995343l-33.679999999993015,-2.7000000000116415l-33.679999999993015,-2.669999999983702l-171.0100000000093,28.44000000000233l-57.79999999998836,-6.169999999983702l-82.29999999998836,-24.09000000002561l-125.42999999999302,-59.64000000001397l-51.40999999997439,-13.14000000001397l-60.47999999998137,0.8900000000139698l-60.55999999999767,18.880000000004657l-65.96000000002095,16.21999999997206l-111.77000000001863,38.15000000002328l-48.94000000000233,15.78000000002794l-59.9199999999837,29.71999999997206l-38.789999999979045,25.820000000006985l-17.650000000023283,23.19000000000233l-39.429999999993015,31.84000000002561l-137.53999999997905,147.4099999999744l-60.35999999998603,32.02000000001863l-32.71999999997206,5.710000000020955l-67.22999999998137,-6.710000000020955l-63.429999999993015,-23.349999999976717l-27.650000000023283,-6.10999999998603l-70.46999999997206,-28.489999999990687l-14.460000000020955,-5.4500000000116415l-6.710000000020955,-7.53000000002794l-94.10999999998603,-52.429999999993015l-92.23999999999069,-35.54999999998836l-36,-31.71999999997206l-128.22999999998137,-82.90999999997439l-59.28000000002794,-25.630000000004657l-48.25,-7.090000000025611l-44.75,19.489999999990687l-44.73999999999069,19.5l-120.0800000000163,42.34000000002561l-65.8300000000163,13.64000000001397l-173.28999999997905,44.54999999998836l-54.40999999997439,12.960000000020955l-42.98999999999069,12.35999999998603l-114.79999999998836,43.710000000020955l-18.900000000023283,15.89000000001397l-92.84000000002561,49.52000000001863l-50.48999999999069,27.599999999976717l-72.10999999998603,49.34000000002561l-112.57000000000698,71.34000000002561l-169.57000000000698,134.6699999999837l-104.59000000002561,66.90999999997439l-43.90000000002328,33.86999999999534l-51.45000000001164,33.5l-71.71000000002095,28.880000000004657l-120.0800000000163,52.86999999999534l-51.1699999999837,15.460000000020955l-94.9199999999837,32.52000000001863l-88.28000000002794,24.40999999997439l-55.96999999997206,7.989999999990687l-85.32000000000698,0.5200000000186265l-22.539999999979045,-1.1400000000139698l-101.65999999997439,-20.78000000002794l-61.44000000000233,-23.15999999997439l-38.03000000002794,-14.349999999976717l-64.0800000000163,-47.69000000000233l-3.9899999999906868,-13.450000000011642l-21.40999999997439,-40.73999999999069l-5.35999999998603,-32.73999999999069l-4.2700000000186265,-41.0800000000163l8.669999999983702,-53.60999999998603l15.340000000025611,-31.65999999997439l8.869999999995343,-40.40999999997439l22.53000000002794,-88.97999999998137l-9.39000000001397,-30.520000000018626l5.830000000016298,-16.520000000018626l7.429999999993015,-44.09999999997672l-16.539999999979045,-78.96000000002095l-30.44000000000233,-73.65999999997439l-25.599999999976717,-21.729999999981374l-61.64000000001397,-35.59999999997672l-112.09000000002561,-69.44000000000233l-49.38000000000466,-27.80999999999767l-106.05999999999767,-101.61999999999534l-46.97999999998137,-75.73999999999069l-32.10999999998603,-73.77000000001863l-8.429999999993015,-96.59000000002561l-13.349999999976717,-250.63000000000466l14.260000000009313,-126.6699999999837l15.21999999997206,-46.05999999999767l14.869999999995343,-72.53000000002794l0.5100000000093132,-63.6699999999837l6.28000000002794,-34.52000000001863l-3.4400000000023283,-91.52000000001863l-59.47999999998137,-242.2399999999907l-65.59000000002561,-148.82000000000698l-74.8300000000163,-134.92999999999302l-39.4199999999837,-58.55999999999767l-48.78000000002794,-73.46000000002095l-4.5499999999883585,-23.070000000006985l-68.95000000001164,-91.38000000000466l-62.9199999999837,-50.19000000000233l-86.65000000002328,-55.070000000006985l-114.9199999999837,-67.40999999997439l-121.01000000000931,-64.17999999999302l-82.3300000000163,-44.05999999999767l-95.59000000002561,-56.8300000000163l-97.86999999999534,-38.95000000001164l-73.71000000002095,-37.65000000002328l-122.15000000002328,-53.48999999999069l-110.73999999999069,-54.11999999999534l-97.86999999999534,-66.67999999999302l-58.35999999998603,-53.69000000000233l-4.599999999976717,-21.869999999995343l6.309999999997672,-47.72999999998137l18.419999999983702,-68.71000000002095l29.64000000001397,-40.429999999993015l37.03000000002794,-25.630000000004657l-2,-13.320000000006985l57.77000000001863,-55.72999999998137l66.59000000002561,-66.07000000000698l72.75,-99.39000000001397l63.54999999998836,-72.23999999999069l67.86999999999534,-91.26000000000931l15.619999999995343,-48.420000000012806l5.630000000004657,-71.79999999998836l-16.010000000009313,-48.94000000000233l-13.510000000009313,-13.35999999998603l-9.619999999995343,-9.529999999998836l-115.53000000002794,-85.63000000000466l-124,-77.69000000000233l-82.3300000000163,-53.80999999999767l-69.6699999999837,-50.70000000001164l-40.30999999999767,-33.48999999999069l-39.38000000000466,-53.829999999987194l-3.35999999998603,-31.45999999999185l12.099999999976717,-20.970000000001164l91.23999999999069,-43.029999999998836l101.46999999997206,-78.52999999999884l37.95000000001164,-48.39999999999418l3.7600000000093132,-28.64000000001397l-52.53000000002794,-53.35000000000582l-18.099999999976717,-32.26000000000931l-5.429999999993015,-43.55999999999767l77.3300000000163,-79.83999999999651l68.8300000000163,-57.51999999998952l50.5800000000163,-32.079999999987194l98.71000000002095,-30.660000000003492l98.34999999997672,-42.679999999993015l70.65999999997439,-44.23999999999069l13.710000000020955,-19.679999999993015l-11.669999999983702,-39.08999999999651l-64.86999999999534,-86.44000000000233l-36.86999999999534,-45.279999999998836l-57.04999999998836,-60.779999999998836l-58.84000000002561,-46.45999999999185l-97.75,-89.51999999998952l-119.48999999999069,-78.67999999999302l-87.84000000002561,-64.95999999999185l-36.51000000000931,-46.470000000001164l-7.150000000023283,-72.51000000000931l16.020000000018626,-37.570000000006985l64.46999999997206,-68.52999999999884l73.27000000001863,-36.79000000000815l9.820000000006985,-18.70000000001164l14.099999999976717,-8.820000000006985l10.630000000004657,-39.04999999998836l1,-36.04000000000815l-13.85999999998603,-35.58999999999651l-28.770000000018626,-77.29999999998836l-21.96999999997206,-30.04000000000815l-89.23999999999069,-109.48999999999069l-68.78999999997905,-53.10999999998603l-56.039999999979045,-23.54999999998836l-89.69000000000233,-48.26000000000931l-36.75,-29.70000000001164l-16.85999999998603,-26.19000000000233l-9.059999999997672,-29.320000000006985l5.590000000025611,-28.55999999999767l24.25,-29.880000000004657l187.10999999998603,-76.05999999999767l22.489999999990687,-16.779999999998836l27.04999999998836,-9.309999999997672l16.369999999995343,-12.299999999988358l14.380000000004657,-25.630000000004657l28.69000000000233,-64.48999999999069l0.15999999997438863,-72.08999999999651l-15.78000000002794,-34.51000000000931l-19.05999999999767,-65.95000000001164l-2.9099999999743886,-62.64000000001397l18.25,-41.04999999998836l46.5800000000163,-46.70000000001164l74.90000000002328,-52.29000000000815l122.88000000000466,-67.6700000000128l49.09999999997672,-38.14999999999418l28.679999999993015,-36.829999999987194l8.989999999990687,-27.179999999993015l14.78000000002794,-14.779999999998836l17.09000000002561,-47.11999999999534l-7.2700000000186265,-43.64000000001397l-61.51000000000931,-93.51999999998952l-11.070000000006985,-42.61999999999534l0,-43.30999999999767l19.80999999999767,-39.73000000001048l27.130000000004657,-24.920000000012806l50.04999999998836,-32.10000000000582l49.05999999999767,-24.910000000003492l52.289999999979045,-6.730000000010477l255.05999999999767,1.959999999991851l69.46999999997206,2.5599999999976717l70.07000000000698,-2.179999999993015l165.38000000000466,-0.6600000000034925l159.46999999997206,2.6000000000058208l128.9099999999744,-2.7000000000116415l91.35999999998603,3.6700000000128057l503.0200000000186,1.3999999999941792l96.34999999997672,-6.970000000001164l10.10999999998603,-7.89000000001397l6.989999999990687,-27.220000000001164l-7.710000000020955,-118.10999999998603l13.539999999979045,-20.910000000003492l72.30999999999767,-5.809999999997672l73.61999999999534,-2.179999999993015l28.64000000001397,-9.309999999997672l63.15999999997439,-6.329999999987194l8.630000000004657,-25.95999999999185l-0.09999999997671694,-14.39999999999418l-296.7299999999814,-19.10000000000582l-83.25,-9.170000000012806l-35.59000000002561,-9.089999999996508l-27.330000000016298,-31.45000000001164l-30.960000000020955,-61.66000000000349l2.1199999999953434,-62.38000000000466l10.10999999998603,-20.30999999999767l19.010000000009313,-38.170000000012806l14.619999999995343,-44.85999999998603l18.65999999997439,-32.66000000000349l11.340000000025611,-33.01999999998952l74.61999999999534,-101.72000000000116l70.75,-85.19000000000233l77.17999999999302,-63.179999999993015l44.70000000001164,-21.69000000000233l41.070000000006985,-21.869999999995343l32.51000000000931,-27.10999999998603l73.42999999999302,-32.23000000001048l26.599999999976717,-23.80999999999767l-6.630000000004657,-36.35000000000582l-54.36999999999534,-95.29999999998836l0.6400000000139698,-35.970000000001164l21.650000000023283,-43.29999999998836l52.04999999998836,-38.13000000000466l99.63000000000466,-69.25l88.13000000000466,-80.70000000001164l70.5,-102l43.19000000000233,-40.98999999999069l97.22999999998137,-112.64999999999418l14.380000000004657,-29.260000000009313l63.20000000001164,-41.20999999999185l134.97999999998137,-62.70000000001164l44.34000000002561,-36.14999999999418l26.89000000001397,-43.04000000000815l67.51000000000931,-63.779999999998836l58.23999999999069,-15.079999999987194l56.1699999999837,2.8800000000046566l117.71999999997206,21.54999999998836l122.76000000000931,9.769999999989523l99.07000000000698,-5.829999999987194l85.36999999999534,-13.75l180.44000000000233,-48.64999999999418l36.51000000000931,-1.7799999999988358l69.03000000002794,-30.179999999993015l56.40999999997439,-15.220000000001164l123.78999999997905,-49.10000000000582l59.60999999998603,-28.279999999998836l176.0800000000163,-110.19000000000233l191.95000000001164,-123.88000000000466l59.52000000001863,-28.29999999998836l47.5800000000163,-36.11999999999534l103.02000000001863,-61.04000000000815l54.929999999993015,-36.95000000001164l32.9199999999837,-18.829999999987194l77.29999999998836,-58.70000000001164l84.1699999999837,-55.95000000001164l39.34000000002561,-44.89999999999418l48.65999999997439,-63.720000000001164l28.64000000001397,-63.39000000001397l3.2000000000116415,-63.44000000000233l-29.15999999997439,-150.1600000000035l-10.830000000016298,-84.48999999999069l-3.3099999999976717,-69.75l17.849999999976717,-81.89000000001397l8.869999999995343,-82.36999999999534l-4.10999999998603,-45.79999999998836l-14.869999999995343,-113.47000000000116l-17.650000000023283,-71.60999999998603l-35.75,-121.67999999999302l-11.429999999993015,-61.720000000001164l-27.080000000016298,-50.470000000001164l-33.47999999998137,-91.5799999999872l-33.76000000000931,-72.41000000000349l-56.11999999999534,-132.2399999999907l-28.71999999997206,-117.73000000001048l-4.4799999999813735,-158.57000000000698l1.1599999999743886,-10.700000000011642l24.770000000018626,-28.829999999987194l42.4199999999837,-25.54000000000815l6.590000000025611,-2.7600000000093132" id="path4258" inkscape:connector-curvature="0" style="fill:#318CE7;fill-opacity:1;fill-rule:evenodd;stroke:#000000;stroke-width:10.06766129;stroke-linejoin:round;stroke-miterlimit:4;stroke-opacity:1;stroke-dasharray:none"/>
    <path d="M-364719.59,240882.32l0,0l-32.71999999997206,1268.5899999999965l-33.19000000000233,1284.7300000000105l-92.96000000002095,3500.3099999999977l-83.01000000000931,291.38000000000466l-26.570000000006985,92.88000000000466l-1.7600000000093132,75.82000000000698l-6.669999999983702,272.79999999998836l-132.02000000001863,5345l-254.46999999997206,-78.73000000001048l-2444.179999999993,-2417.720000000001l-2717.780000000028,-2751.079999999987l-4202.469999999972,230.27999999999884l-1561.9500000000116,-664.4700000000012l21.70000000001164,-7.829999999987194l42.4199999999837,-31.019999999989523l44.34000000002561,-59.679999999993015l10.39000000001397,-51.13000000000466l26.64000000001397,-85.41000000000349l-0.4400000000023283,-73.04000000000815l-25.520000000018626,-118.10999999998603l-36.20000000001164,-89.70000000001164l-35.070000000006985,-26.239999999990687l-25.849999999976717,-33.14000000001397l-56.0800000000163,-53.23000000001048l-55.48999999999069,-35.25l-89.67999999999302,-47.11999999999534l-159.39000000001397,-52.95000000001164l-41.710000000020955,-6.100000000005821l-73.46000000002095,-27.45999999999185l-53.65000000002328,-35.29000000000815l-24.770000000018626,-22.329999999987194l-42.05999999999767,-76.77999999999884l-6.349999999976717,-60.05999999999767l10.260000000009313,-48.779999999998836l40.15000000002328,-23.869999999995343l43.02000000001863,-15.380000000004657l26.289999999979045,-0.35999999998603016l159.5100000000093,-29.64000000001397l50.36999999999534,-19.989999999990687l12.869999999995343,-10.35000000000582l10.979999999981374,-33.170000000012806l-4.830000000016298,-32.48000000001048l-8.869999999995343,-27.14999999999418l-40.070000000006985,-103.73999999999069l-18.169999999983702,-93.98000000001048l-15.979999999981374,-33.470000000001164l-0.8800000000046566,-1.7999999999883585l-69.15000000002328,-63.279999999998836l-11.380000000004657,-38.679999999993015l-3.2000000000116415,-56.39000000001397l16.78000000002794,-119.22000000000116l21.53000000002794,-86.75l23.770000000018626,-42.35999999998603l73.85999999998603,-86.26999999998952l19.770000000018626,-35.30999999999767l-24.20000000001164,-81.01999999998952l-33,-54.94000000000233l-8.270000000018626,-32.60000000000582l-13.059999999997672,-65.10000000000582l25.010000000009313,-35.13000000000466l24.080000000016298,-20.769999999989523l51.820000000006985,-19.94000000000233l88.40000000002328,-18.75l118.40000000002328,1.3399999999965075l76.73999999999069,-1.179999999993015l63,-4.040000000008149l59.44000000000233,-2.9500000000116415l77.38000000000466,-10.769999999989523l76.78000000002794,-28.760000000009313l50.929999999993015,-33.179999999993015l75.26000000000931,-32.41000000000349l71.90999999997439,-34.94000000000233l93.27000000001863,-70.20999999999185l4.679999999993015,-3.2300000000104774l43.09999999997672,-29.119999999995343l51.65000000002328,-78.73999999999069l79.17999999999302,-43.29999999998836l133.3400000000256,-77.64000000001397l98.63000000000466,-49.91000000000349l92,-27.39000000001397l28.960000000020955,-19.510000000009313l10.710000000020955,-34.420000000012806l-6.510000000009313,-38.98999999999069l-15.900000000023283,-63.63000000000466l-7.5499999999883585,-18.179999999993015l4.590000000025611,-17.85000000000582l-1.6699999999837019,-28.80999999999767l7.070000000006985,-29.739999999990687l-13.429999999993015,-65.04999999998836l-60.64000000001397,-86.85000000000582l-20.010000000009313,-70.04999999998836l-42.14000000001397,-75.54000000000815l-7.789999999979045,-42.16000000000349l43.29999999998836,-138.85999999998603l22.04999999998836,-103.55999999999767l-12.21999999997206,-111.73000000001048l10.340000000025611,-26.070000000006985l-41.61999999999534,-63.16000000000349l-5.909999999974389,-8.950000000011642l-68.22999999998137,-101.48000000001048l-60.13000000000466,-91.67999999999302l-48.13000000000466,-116.42999999999302l-7.830000000016298,-40.98000000001048l-39.51000000000931,-88.63000000000466l-24.80999999999767,-100.23000000001048l-18.169999999983702,-41.29999999998836l-39.54999999998836,-141.35000000000582l-11.309999999997672,-150.13000000000466l5.64000000001397,-199.9100000000035l-19.260000000009313,-77.27999999999884l-2.35999999998603,-45.61999999999534l-29.960000000020955,-72.80999999999767l-65.39000000001397,-84.69000000000233l-44.09999999997672,-39.679999999993015l-54.72999999998137,-35.23999999999069l-30.20000000001164,-12.920000000012806l-86.53000000002794,-49.429999999993015l-112.25,-51.44000000000233l-20.80999999999767,1.7399999999906868l-90,-21.989999999990687l-31.44000000000233,-20.14999999999418l-64.52000000001863,-69.14999999999418l-63.54999999998836,-55.95000000001164l-110.02000000001863,-83.85000000000582l-2.2700000000186265,-17.989999999990687l15.5,-25.89000000001397l24.919999999983702,-12.380000000004657l75.09999999997672,-15.579999999987194l92.11999999999534,-12.670000000012806l53.45000000001164,-0.7200000000011642l74.82000000000698,-12.019999999989523l109.97999999998137,-22.89000000001397l60.79999999998836,-7.75l45.73999999999069,-15.339999999996508l33.429999999993015,-10.950000000011642l21.580000000016298,-13.720000000001164l97.46999999997206,-44.89999999999418l91.32000000000698,-55.89999999999418l88.44000000000233,-65.61999999999534l84.36999999999534,-138.8399999999965l64,-61.570000000006985l37.22999999998137,-45.60000000000582l94.30999999999767,-79.85999999998603l26.25,-35.14999999999418l61.59999999997672,-52.08999999999651l33.710000000020955,-16.95999999999185l526.9899999999907,-33.79999999998836l540.6900000000023,-3.3299999999871943l22.289999999979045,-0.20000000001164153l518.359999999986,-0.7999999999883585l540.640000000014,-1.2999999999883585l540.7700000000186,-1.8800000000046566l540.570000000007,-2.290000000008149l81.40999999997439,-0.35999999998603016l459.28000000002794,-1.1400000000139698l540.570000000007,-1.7600000000093132l540.6900000000023,-2.2600000000093132l94.39000000001397,-0.3800000000046566l446.21000000002095,1.179999999993015l62.9199999999837,0.14000000001396984l432.86999999999534,0.7799999999988358l44.820000000006985,-1.4800000000104774l78.82000000000698,5.510000000009313l176.80999999999767,2.2000000000116415l363.7600000000093,4.559999999997672l540.5300000000279,6.209999999991851l540.5999999999767,5.769999999989523l540.609999999986,5.269999999989523l540.6500000000233,4.7999999999883585l540.6900000000023,4.290000000008149l540.7299999999814,3.779999999998836l540.7299999999814,3.3099999999976717l81.13000000000466,0.4400000000023283" id="path4260" inkscape:connector-curvature="0" style="fill:#318CE7;fill-opacity:1;fill-rule:evenodd;stroke:#000000;stroke-width:10.06766129;stroke-linejoin:round;stroke-miterlimit:4;stroke-opacity:1;stroke-dasharray:none"/>
    <path style="fill:#318CE7;fill-opacity:1;fill-rule:evenodd;stroke:#000000;stroke-width:0.29999998;stroke-linejoin:round;stroke-miterlimit:4;stroke-opacity:1;stroke-dasharray:none" d="M1070.4375,570.96875l-88.84375,55.0625l-0.03125,-0.03125l-23.375,-10.09375l-51.1875,3.09375l-50.65625,2.9375l-0.84375,0.03120000000001255l-56.4375,3.09375l-59.125,-18.125l0,-0.03120000000001255l-0.03120000000001255,0l-0.65625,25.625l-3.0625,112.6875l-0.53125,17.09375l0.03120000000001255,0l0.5625,0.03120000000001255l145.25,-0.25l0.65625,21.5625l20.84375,-0.125l157.875,-1.625c0.5717999999999392,-7.979709999999955,6.373399999999947,-10.538499999999999,8.156199999999899,-17.5c2.1931999999999334,-3.203620000000001,4.291999999999916,-7.377680000000055,1.875,-11.75c-0.3429000000000997,-2.1070399999999836,-11.348899999999958,1.7239600000000337,-8.812400000000025,-1.5625c-1.444400000000087,-3.54988000000003,-0.5298999999999978,-7.86414000000002,5.125,-7.5c2.7058999999999287,-0.9052699999999732,4.380100000000084,-2.8424700000000485,3.125,-5.34375c-3.018000000000029,0.10905999999999949,-4.52839999999992,-4.3413699999999835,-1.562599999999975,-6.53125c2.8911000000000513,-1.7178800000000365,4.507200000000012,-3.4677500000000236,5.718800000000101,-6.71875c1.0861999999999625,-9.24136999999996,9.875500000000102,-11.510610000000042,14.3125,-17.1875c5.429900000000089,-5.379199999999969,13.496699999999919,-8.707080000000019,20.8125,-12.40625c6.352100000000064,-3.874680000000012,16.44990000000007,-3.715180000000032,22.375,-7.84375c1.1165000000000873,-2.9086200000000417,4.824200000000019,-2.8107899999999972,3.5625,-6.15625c-0.01700000000005275,-2.6881100000000515,2.820699999999988,-5.539499999999975,5.875,-7.0625c3.3350000000000364,-4.619339999999966,1.0925999999999476,-11.111819999999966,8.125,-12.15625c3.8985000000000127,-2.075460000000021,9.16599999999994,-4.050150000000031,12.906300000000101,-5.875c2.9136000000000877,-6.4728000000000065,17.566800000000057,-2.8008499999999685,23.4686999999999,-6.96875c-0.27690000000006876,-0.7054799999999659,-0.2644999999999982,-1.3939900000000307,-0.06199999999989814,-2.0625l-0.34380000000010114,-0.15625l-0.1874000000000251,0.0625l-0.15630000000010114,0.03120000000001255l-45.4375,-15.0625l-11.6875,-11.25l-0.03099999999994907,-0.03120000000001255l-47.7811999999999,-46.5625l-5.25,-0.125l-0.09400000000005093,0l-0.03099999999994907,0l-3.218800000000101,-2.34375l-1.2186999999998989,-0.875ZM1194.0625,637.6875c-0.25060000000007676,0.12316999999995915,-0.4861000000000786,0.2391499999999951,-0.7186999999998989,0.375c0.23060000000009495,-0.13503000000002885,0.470299999999952,-0.2525100000000293,0.7186999999998989,-0.375ZM1190.75,641.28125c-0.041999999999916326,0.22816000000000258,-0.05899999999996908,0.4670700000000352,-0.06199999999989814,0.71875c0,-0.25003000000003794,0.021999999999934516,-0.4918999999999869,0.06199999999989814,-0.71875Z" transform="matrix(33.558871,0,0,33.558871,-389958.41,232646.48)" id="path4262" inkscape:connector-curvature="0"/>
    <path d="M-379194.54,249983.12l0,0l25.25,-41.01999999998952l40.59000000002561,-66.77999999999884l68.94000000000233,-90.89999999999418l18.580000000016298,-34.070000000006985l19.289999999979045,-20.869999999995343l53.60999999998603,-75.9200000000128l41.15000000002328,-52.39999999999418l116.77000000001863,-139.57000000000698l111.09000000002561,-112.23000000001048l30.320000000006985,-50.420000000012806l51.210000000020955,-70.07000000000698l24.729999999981374,-46.98999999999069l-0.09999999997671694,-22.75l2.4400000000023283,-56.170000000012806l58,-138.01999999998952l14.580000000016298,-29.480000000010477l15.940000000002328,-72.44000000000233l1.2000000000116415,-135.23000000001048l-26.80999999999767,-42.820000000006985l-42.14000000001397,-26.579999999987194l-72.53999999997905,-20.44000000000233l-67.23999999999069,-21.529999999998836l-35.39000000001397,-22.769999999989523l-9.590000000025611,-13.480000000010477l-0.9199999999837019,-34.76000000000931l-4.070000000006985,-39.61999999999534l29.84000000002561,-68.41000000000349l47.90000000002328,-74.95999999999185l44.70000000001164,-31.980000000010477l70.94000000000233,-28.64999999999418l120.57000000000698,-34.170000000012806l103.21999999997206,-13.200000000011642l60.44000000000233,-7.529999999998836l81.65000000002328,-7.989999999990687l84.36999999999534,-21.089999999996508l58.1699999999837,-0.4200000000128057l27.44000000000233,10.5l83.72999999998137,36.329999999987194l76.82000000000698,9.769999999989523l76.78000000002794,-14.179999999993015l38.30999999999767,-17.89999999999418l43.34000000002561,-39.23999999999069l10.830000000016298,-28.39000000001397l62.27000000001863,-108.04999999998836l11.070000000006985,-31.95999999999185l51.570000000006985,-31.820000000006985l61.84000000002561,-27.880000000004657l45.65999999997439,-23.630000000004657l50.84999999997672,-22.29000000000815l20.78000000002794,-19.660000000003492l33.10999999998603,-20.470000000001164l35.44000000000233,-28.760000000009313l42.14000000001397,-74.04999999998836l58.23999999999069,-78.30999999999767l72.86999999999534,-62.279999999998836l39.429999999993015,-35.829999999987194l23.20000000001164,-30.380000000004657l44.19000000000233,-80l12.659999999974389,-30.679999999993015l-16.539999999979045,-57.16000000000349l-9.03000000002794,-31.05999999999767l-22.45000000001164,-30.679999999993015l-28.520000000018626,-45.220000000001164l-20.729999999981374,-55.75l2.39000000001397,-34.64999999999418l13.10999999998603,-11.549999999988358l10.820000000006985,-29.579999999987194l72.34999999997672,-31.179999999993015l58.9199999999837,11.489999999990687l70.30999999999767,23.80999999999767l54.289999999979045,28.05999999999767l40.21999999997206,2.5l53.01000000000931,20.829999999987194l13.10999999998603,13.60000000000582l151.9199999999837,64.70000000001164l64.15000000002328,12.760000000009313l112.1699999999837,29.85999999998603l57.89000000001397,0.6199999999953434l48.53000000002794,-17.519999999989523l1561.9500000000116,664.4700000000012l4202.469999999972,-230.27999999999884l2717.780000000028,2751.079999999987l2444.179999999993,2417.720000000001l254.46999999997206,78.73000000001048l-21.89000000001397,859.609999999986l-102.90999999997439,3782.540000000008l-3577.969999999972,-18.670000000012806l-728.7199999999721,-6.420000000012806l-2058.289999999979,-22.829999999987194l-2232.179999999993,-32.69000000000233l-3048.5100000000093,-1852.2000000000116l-3147.460000000021,-1955.7900000000081l50.05999999999767,-20.89000000001397l169.60999999998603,-85.42999999999302l74.27000000001863,-20.429999999993015l73.82000000000698,-50.5l35.710000000020955,-30.679999999993015l39.27000000001863,-30.5l22.04999999998836,-3.75l59.47999999998137,-17.579999999987194l48.14000000001397,4.679999999993015l89.71999999997206,3.0100000000093132l103.30999999999767,-5.9500000000116415l128.15000000002328,-37.170000000012806l55.88000000000466,-17.779999999998836l14.940000000002328,-5.269999999989523l36.11999999999534,-18.760000000009313l45.34000000002561,-72.22000000000116l7.349999999976717,-53.60999999998603l19.650000000023283,-50.64999999999418l56.96999999997206,-46.54000000000815l21.849999999976717,-2.5799999999871943l32.54999999998836,-18.869999999995343l44.070000000006985,-8.769999999989523l59.55999999999767,-2.0599999999976717l44.820000000006985,18.85999999998603l59.039999999979045,20.69000000000233l44.14000000001397,8.010000000009313l47.179999999993015,-3.8399999999965075l27.130000000004657,-19.14999999999418l12.21999999997206,-31.839999999996508l-25.570000000006985,-49.10000000000582l-61.79999999998836,-116.72000000000116l-20.330000000016298,-29.720000000001164l-55.09000000002561,-58.89000000001397l-14.900000000023283,-47.429999999993015l5.71999999997206,-38.10999999998603l93.6699999999837,-179.14999999999418l-2.5100000000093132,-27.679999999993015l6.349999999976717,-45.26000000000931l-26.04999999998836,-290.1000000000058l-14.179999999993015,-71.42999999999302l-22.80999999999767,-58.579999999987194l-28.599999999976717,-52.86999999999534l-30.71999999997206,-67.35000000000582l-12.070000000006985,-56.89999999999418l9.950000000011642,-45.10999999998603l-3.1900000000023283,-56.45999999999185l-6.64000000001397,-39.86999999999534l12.590000000025611,-53.36999999999534l-21.53000000002794,-69.30999999999767l-32.35999999998603,-15.920000000012806l-45.179999999993015,-12.880000000004657l-75.21999999997206,1.320000000006985l-76.17999999999302,-7.130000000004657l-52.570000000006985,-27.64999999999418l-27.40999999997439,-28.839999999996508l-13.419999999983702,-25.79999999998836l-15.14000000001397,-60.64000000001397l-13.619999999995343,-41.429999999993015l-7.669999999983702,-47.10000000000582l-23.09000000002561,-35.829999999987194l-30.55999999999767,-32.61999999999534l-103.65999999997439,-33.64999999999418l-47.539999999979045,-18.820000000006985l-2.35999999998603,-8.170000000012806l-16.539999999979045,-16.14000000001397l-188.54999999998836,-139.4899999999907l-107.05999999999767,-87.58999999999651l-34.90999999997439,-31.14000000001397l-53.72999999998137,-85.70000000001164l-6.5499999999883585,-30.119999999995343l-16.820000000006985,-56.86999999999534l4.2299999999813735,-30.95999999999185l45.97999999998137,-86.89999999999418l60.039999999979045,-62.45999999999185l66.96000000002095,-61l63.98999999999069,-45.579999999987194l42.90999999997439,-48.73999999999069l-0.2800000000279397,-19.14999999999418l45.05999999999767,-122.83999999999651l48.84999999997672,-126.30999999999767l35.20000000001164,-64.5799999999872l62.63000000000466,-98.29000000000815l1.4400000000023283,-19.10999999998603l43.02000000001863,-75.07000000000698l17.29999999998836,-28.079999999987194Z" id="path4264" inkscape:connector-curvature="0" style="fill:#318CE7;fill-opacity:1;fill-rule:evenodd;stroke:#000000;stroke-width:10.06766129;stroke-linejoin:round;stroke-miterlimit:4;stroke-opacity:1;stroke-dasharray:none"/>
  </g>
  <g id="g3338" inkscape:groupmode="layer" inkscape:label="Provincias" clip-path="url(#clip)" visibility="visible" transform="matrix(0.02979838,0,0,0.02979838,11620.129,-6932.4883)" style="visibility:visible;display:inline" sodipodi:insensitive="true">
    
    
  </g>
  <g id="g3001" inkscape:groupmode="layer" inkscape:label="Paises" clip-path="url(#clip)" visibility="visible" transform="matrix(0.02979838,0,0,0.02979838,11620.129,-6932.4883)" style="visibility:visible;display:inline" sodipodi:insensitive="true">
    
    
  </g>
  <defs id="defs4397">
    <clipPath id="clip">
      <rect width="7774.8057" height="5974.0298" transform="matrix(33.558872,0,0,33.558872,-471493.75,104382.5)" y="0" x="0" id="rect4400"/>
    </clipPath>
    <clipPath id="clip2">
      <rect width="7774.8057" height="5974.0298" transform="translate(-14049.75,3110.4293)" y="0" x="0" id="rect4403"/>
    </clipPath>
    <pattern width="8" height="8" x="0" y="0" id="VBAPattern" patternUnits="userSpaceOnUse">
      <path d="M4,0L8,0L8,4L4,4L4,0M0,4L4,4L4,8L0,8L0,4" fill="#d2d2d2" id="path4406"/>
    </pattern>
  </defs>
</svg>